<svg id="Capa_1" xmlns="http://www.w3.org/2000/svg" viewBox="0 0 150 150"><style>.st0{fill:#fff}</style><path class="st0" d="M68.8 100.9c-9.8-1-18.7-3.4-26.3-9.4-.9-.7-1.9-1.4-2.8-2.3-3.3-3.2-3.7-6.8-1-10.6 2.2-3.2 6-4.1 9.9-2.2.8.4 1.5.8 2.2 1.3 14.1 9.7 33.5 10 47.7.4 1.4-1.1 2.9-2 4.6-2.4 3.4-.9 6.5.4 8.4 3.3 2.1 3.4 2 6.7-.5 9.3-3.9 4-8.6 6.9-13.9 9-5 1.9-10.4 2.9-15.8 3.5.8.9 1.2 1.3 1.7 1.8 7.3 7.3 14.6 14.6 21.9 22 2.5 2.5 3 5.6 1.6 8.5-1.5 3.2-4.8 5.3-8.1 5.1-2.1-.1-3.7-1.2-5.1-2.6-5.5-5.5-11.1-11-16.5-16.6-1.6-1.6-2.3-1.3-3.7.1-5.5 5.7-11.2 11.3-16.8 16.9-2.5 2.5-5.6 3-8.5 1.5-3.1-1.5-5.1-4.7-5-7.9.1-2.2 1.2-3.8 2.7-5.3 7.2-7.2 14.4-14.4 21.6-21.7l1.7-1.7z"/><path class="st0" d="M74.7 75.8C57.2 75.7 42.9 61.2 43 43.6c.1-17.7 14.5-32 32.2-32s32 14.6 31.9 32.5c-.2 17.5-14.7 31.7-32.4 31.7zm16-32.1C90.6 35 83.7 28 75 28c-8.8 0-15.8 7.1-15.7 15.8s7.1 15.6 15.8 15.5c8.7.1 15.6-6.9 15.6-15.6z"/></svg>