<svg id="Capa_1" xmlns="http://www.w3.org/2000/svg" viewBox="0 0 150 150"><style>.st0{fill:#fff}</style><path class="st0" d="M137 36.4c-4.4 2-9.2 3.3-14.1 3.9 5.1-3 9-7.9 10.8-13.6-4.8 2.8-10 4.9-15.6 6-4.5-4.8-10.9-7.8-18-7.8-13.6 0-24.6 11-24.6 24.6 0 1.9.2 3.8.6 5.6-20.4-1-38.6-10.8-50.7-25.7-2.1 3.6-3.3 7.9-3.3 12.4 0 8.5 4.3 16.1 10.9 20.5-4-.1-7.8-1.2-11.1-3.1v.3c0 11.9 8.5 21.9 19.7 24.1-2.1.6-4.2.9-6.5.9-1.6 0-3.1-.2-4.6-.5 3.1 9.8 12.2 16.9 23 17.1-8.4 6.6-19 10.5-30.6 10.5-2 0-3.9-.1-5.9-.3 10.9 7 23.8 11.1 37.7 11.1 45.3 0 70-37.5 70-70l-.1-3.2c4.9-3.5 9.1-7.8 12.4-12.8z"/></svg>