<svg id="Capa_1" xmlns="http://www.w3.org/2000/svg" viewBox="0 0 150 150"><style>.st0{fill:#fff}</style><path class="st0" d="M149.2 108.5c-.2-.4-.4-.7-.5-1-2.6-4.7-7.6-10.4-14.9-17.3l-.2-.2-.1-.1-.1-.1h-.1c-3.3-3.2-5.4-5.3-6.3-6.4-1.6-2.1-2-4.2-1.1-6.3.6-1.6 3-5 7-10.2 2.1-2.8 3.8-5 5.1-6.6 9-12 12.9-19.6 11.7-23l-.5-.8c-.3-.5-1.1-.9-2.4-1.3-1.3-.4-3-.5-5-.2l-22.5.2c-.4-.1-.9-.1-1.6 0-.7.2-1 .2-1 .2l-.4.2-.3.2c-.3.2-.5.4-.9.8-.3.4-.6.8-.8 1.4-2.4 6.3-5.2 12.2-8.4 17.6-1.9 3.2-3.7 6-5.3 8.4-1.6 2.4-3 4.1-4.1 5.2s-2.1 2-3 2.7-1.6 1-2 .9c-.5-.1-.9-.2-1.3-.3-.7-.5-1.3-1.1-1.8-1.9-.4-.8-.7-1.8-.9-3-.2-1.2-.2-2.3-.3-3.2v-3.7c.1-1.6.1-2.7.1-3.3 0-2 0-4.1.1-6.4.1-2.3.1-4.2.2-5.5.1-1.4.1-2.8.1-4.3s-.1-2.7-.3-3.6c-.2-.9-.5-1.7-.8-2.5-.4-.8-.9-1.4-1.6-1.9-.7-.4-1.6-.8-2.6-1.1-2.8-.6-6.3-1-10.5-1-9.7-.1-15.9.5-18.7 1.9-1.1.6-2.1 1.4-3 2.3-.9 1.1-1.1 1.8-.4 1.9 3.1.5 5.3 1.6 6.6 3.4l.5.9c.4.7.7 1.9 1.1 3.6.4 1.7.6 3.6.7 5.7.3 3.8.3 7.1 0 9.8s-.5 4.8-.7 6.3-.6 2.7-1.1 3.7c-.5.9-.8 1.5-.9 1.7l-.4.4c-.7.3-1.4.4-2.1.4-.7 0-1.6-.4-2.7-1.1-1-.7-2.1-1.7-3.2-3s-2.4-3.1-3.8-5.3c-1.4-2.3-2.9-5-4.4-8.1l-1.2-2.3c-.8-1.5-1.8-3.6-3.2-6.4-1.4-2.8-2.6-5.5-3.6-8.1-.4-1.1-1-1.9-1.9-2.5l-.4-.2c-.3-.2-.7-.4-1.2-.7-.6-.2-1.2-.4-1.8-.5L5 35.1c-2.2 0-3.7.5-4.5 1.5l-.3.5c-.1.2-.2.7-.2 1.2 0 .6.2 1.3.5 2.1C3.6 47.8 7 54.9 10.7 61.7s6.9 12.3 9.6 16.5 5.5 8.1 8.3 11.8c2.8 3.7 4.7 6.1 5.6 7.1.9 1 1.6 1.8 2.1 2.3l2 1.9c1.2 1.2 3.1 2.7 5.5 4.5 2.4 1.7 5.1 3.5 8 5.2s6.4 3.1 10.3 4.1c3.9 1.1 7.7 1.5 11.4 1.3h9c1.8-.2 3.2-.7 4.1-1.7l.3-.4c.2-.3.4-.8.6-1.4.2-.7.3-1.4.3-2.1-.1-2.2.1-4.3.5-6.1.4-1.8.8-3.1 1.3-4.1.5-.9 1.1-1.7 1.7-2.3.6-.6 1.1-1 1.3-1.1.3-.1.5-.2.6-.3 1.2-.4 2.7 0 4.4 1.2 1.7 1.2 3.3 2.7 4.8 4.5s3.3 3.8 5.3 6.1c2.1 2.2 3.9 3.9 5.5 5l1.6.9c1 .6 2.4 1.2 4.1 1.7s3.1.7 4.4.4l20-.3c2 0 3.5-.3 4.6-1s1.7-1.4 2-2.1c.2-.8.2-1.7 0-2.7-.3-1-.5-1.7-.7-2.1z"/></svg>