<?xml version="1.0" encoding="utf-8"?>
<!-- Generator: Adobe Illustrator 21.1.0, SVG Export Plug-In . SVG Version: 6.00 Build 0)  -->
<svg version="1.1" id="Capa_1" xmlns="http://www.w3.org/2000/svg" xmlns:xlink="http://www.w3.org/1999/xlink" x="0px" y="0px"
	 viewBox="0 0 150 150" style="enable-background:new 0 0 150 150;" xml:space="preserve">
<style type="text/css">
	.st0{fill:#FFFFFF;}
</style>
<g>
	<path class="st0" d="M106.7,11.7H90.2c-18.5,0-30.4,12.2-30.4,31.1v14.3H43.3c-1.4,0-2.6,1.2-2.6,2.6v20.8c0,1.4,1.2,2.6,2.6,2.6
		h16.5v52.5c0,1.4,1.2,2.6,2.6,2.6H84c1.4,0,2.6-1.2,2.6-2.6V83.1H106c1.4,0,2.6-1.2,2.6-2.6V59.7c0-0.7-0.3-1.4-0.8-1.9
		s-1.2-0.8-1.9-0.8H86.6V45c0-5.8,1.4-8.9,9-8.9h11.1c1.4,0,2.6-1.2,2.6-2.6V14.3C109.2,12.8,108.1,11.7,106.7,11.7z"/>
</g>
</svg>
