<?xml version="1.0" encoding="utf-8"?>
<!-- Generator: Adobe Illustrator 21.1.0, SVG Export Plug-In . SVG Version: 6.00 Build 0)  -->
<svg version="1.1" id="Capa_1" xmlns="http://www.w3.org/2000/svg" xmlns:xlink="http://www.w3.org/1999/xlink" x="0px" y="0px"
	 viewBox="0 0 150 150" style="enable-background:new 0 0 150 150;" xml:space="preserve">
<style type="text/css">
	.st0{fill:#FFFFFF;}
</style>
<g>
	<path class="st0" d="M149.2,108.5c-0.2-0.4-0.4-0.7-0.5-1c-2.6-4.7-7.6-10.4-14.9-17.3l-0.2-0.2l-0.1-0.1l-0.1-0.1h-0.1
		c-3.3-3.2-5.4-5.3-6.3-6.4c-1.6-2.1-2-4.2-1.1-6.3c0.6-1.6,3-5,7-10.2c2.1-2.8,3.8-5,5.1-6.6c9-12,12.9-19.6,11.7-23l-0.5-0.8
		c-0.3-0.5-1.1-0.9-2.4-1.3c-1.3-0.4-3-0.5-5-0.2l-22.5,0.2c-0.4-0.1-0.9-0.1-1.6,0c-0.7,0.2-1,0.2-1,0.2l-0.4,0.2l-0.3,0.2
		c-0.3,0.2-0.5,0.4-0.9,0.8c-0.3,0.4-0.6,0.8-0.8,1.4c-2.4,6.3-5.2,12.2-8.4,17.6c-1.9,3.2-3.7,6-5.3,8.4c-1.6,2.4-3,4.1-4.1,5.2
		s-2.1,2-3,2.7s-1.6,1-2,0.9c-0.5-0.1-0.9-0.2-1.3-0.3c-0.7-0.5-1.3-1.1-1.8-1.9c-0.4-0.8-0.7-1.8-0.9-3c-0.2-1.2-0.2-2.3-0.3-3.2
		c0-0.9,0-2.1,0-3.7c0.1-1.6,0.1-2.7,0.1-3.3c0-2,0-4.1,0.1-6.4c0.1-2.3,0.1-4.2,0.2-5.5c0.1-1.4,0.1-2.8,0.1-4.3s-0.1-2.7-0.3-3.6
		c-0.2-0.9-0.5-1.7-0.8-2.5c-0.4-0.8-0.9-1.4-1.6-1.9c-0.7-0.4-1.6-0.8-2.6-1.1c-2.8-0.6-6.3-1-10.5-1C62.2,31,56,31.6,53.2,33
		c-1.1,0.6-2.1,1.4-3,2.3c-0.9,1.1-1.1,1.8-0.4,1.9c3.1,0.5,5.3,1.6,6.6,3.4l0.5,0.9c0.4,0.7,0.7,1.9,1.1,3.6
		c0.4,1.7,0.6,3.6,0.7,5.7c0.3,3.8,0.3,7.1,0,9.8s-0.5,4.8-0.7,6.3s-0.6,2.7-1.1,3.7c-0.5,0.9-0.8,1.5-0.9,1.7
		c-0.2,0.2-0.3,0.3-0.4,0.4c-0.7,0.3-1.4,0.4-2.1,0.4c-0.7,0-1.6-0.4-2.7-1.1c-1-0.7-2.1-1.7-3.2-3c-1.1-1.3-2.4-3.1-3.8-5.3
		c-1.4-2.3-2.9-5-4.4-8.1l-1.2-2.3c-0.8-1.5-1.8-3.6-3.2-6.4c-1.4-2.8-2.6-5.5-3.6-8.1c-0.4-1.1-1-1.9-1.9-2.5l-0.4-0.2
		c-0.3-0.2-0.7-0.4-1.2-0.7c-0.6-0.2-1.2-0.4-1.8-0.5L5,35.1c-2.2,0-3.7,0.5-4.5,1.5l-0.3,0.5C0.1,37.3,0,37.8,0,38.3
		c0,0.6,0.2,1.3,0.5,2.1C3.6,47.8,7,54.9,10.7,61.7s6.9,12.3,9.6,16.5s5.5,8.1,8.3,11.8c2.8,3.7,4.7,6.1,5.6,7.1
		c0.9,1,1.6,1.8,2.1,2.3l2,1.9c1.2,1.2,3.1,2.7,5.5,4.5c2.4,1.7,5.1,3.5,8,5.2s6.4,3.1,10.3,4.1c3.9,1.1,7.7,1.5,11.4,1.3h9
		c1.8-0.2,3.2-0.7,4.1-1.7l0.3-0.4c0.2-0.3,0.4-0.8,0.6-1.4c0.2-0.7,0.3-1.4,0.3-2.1c-0.1-2.2,0.1-4.3,0.5-6.1
		c0.4-1.8,0.8-3.1,1.3-4.1c0.5-0.9,1.1-1.7,1.7-2.3c0.6-0.6,1.1-1,1.3-1.1c0.3-0.1,0.5-0.2,0.6-0.3c1.2-0.4,2.7,0,4.4,1.2
		c1.7,1.2,3.3,2.7,4.8,4.5s3.3,3.8,5.3,6.1c2.1,2.2,3.9,3.9,5.5,5l1.6,0.9c1,0.6,2.4,1.2,4.1,1.7s3.1,0.7,4.4,0.4l20-0.3
		c2,0,3.5-0.3,4.6-1s1.7-1.4,2-2.1c0.2-0.8,0.2-1.7,0-2.7C149.6,109.6,149.4,108.9,149.2,108.5z"/>
</g>
</svg>
