<?xml version="1.0" encoding="utf-8"?>
<!-- Generator: Adobe Illustrator 21.1.0, SVG Export Plug-In . SVG Version: 6.00 Build 0)  -->
<svg version="1.1" id="Capa_1" xmlns="http://www.w3.org/2000/svg" xmlns:xlink="http://www.w3.org/1999/xlink" x="0px" y="0px"
	 viewBox="0 0 150 150" style="enable-background:new 0 0 150 150;" xml:space="preserve">
<style type="text/css">
	.st0{fill:#FFFFFF;}
</style>
<g>
	<g>
		<path class="st0" d="M68.8,100.9c-9.8-1-18.7-3.4-26.3-9.4c-0.9-0.7-1.9-1.4-2.8-2.3c-3.3-3.2-3.7-6.8-1-10.6
			c2.2-3.2,6-4.1,9.9-2.2c0.8,0.4,1.5,0.8,2.2,1.3c14.1,9.7,33.5,10,47.7,0.4c1.4-1.1,2.9-2,4.6-2.4c3.4-0.9,6.5,0.4,8.4,3.3
			c2.1,3.4,2,6.7-0.5,9.3c-3.9,4-8.6,6.9-13.9,9c-5,1.9-10.4,2.9-15.8,3.5c0.8,0.9,1.2,1.3,1.7,1.8c7.3,7.3,14.6,14.6,21.9,22
			c2.5,2.5,3,5.6,1.6,8.5c-1.5,3.2-4.8,5.3-8.1,5.1c-2.1-0.1-3.7-1.2-5.1-2.6c-5.5-5.5-11.1-11-16.5-16.6c-1.6-1.6-2.3-1.3-3.7,0.1
			c-5.5,5.7-11.2,11.3-16.8,16.9c-2.5,2.5-5.6,3-8.5,1.5c-3.1-1.5-5.1-4.7-5-7.9c0.1-2.2,1.2-3.8,2.7-5.3
			c7.2-7.2,14.4-14.4,21.6-21.7C67.6,102.1,68.1,101.6,68.8,100.9z"/>
		<path class="st0" d="M74.7,75.8C57.2,75.7,42.9,61.2,43,43.6c0.1-17.7,14.5-32,32.2-32s32,14.6,31.9,32.5
			C106.9,61.6,92.4,75.8,74.7,75.8z M90.7,43.7C90.6,35,83.7,28,75,28c-8.8,0-15.8,7.1-15.7,15.8s7.1,15.6,15.8,15.5
			C83.8,59.4,90.7,52.4,90.7,43.7z"/>
	</g>
</g>
</svg>
