<?xml version="1.0" encoding="utf-8"?>
<!-- Generator: Adobe Illustrator 21.1.0, SVG Export Plug-In . SVG Version: 6.00 Build 0)  -->
<svg version="1.1" id="Capa_1" xmlns="http://www.w3.org/2000/svg" xmlns:xlink="http://www.w3.org/1999/xlink" x="0px" y="0px"
	 viewBox="0 0 150 150" style="enable-background:new 0 0 150 150;" xml:space="preserve">
<style type="text/css">
	.st0{fill:#FFFFFF;}
</style>
<g>
	<g>
		<path class="st0" d="M137,36.4c-4.4,2-9.2,3.3-14.1,3.9c5.1-3,9-7.9,10.8-13.6c-4.8,2.8-10,4.9-15.6,6c-4.5-4.8-10.9-7.8-18-7.8
			c-13.6,0-24.6,11-24.6,24.6c0,1.9,0.2,3.8,0.6,5.6c-20.4-1-38.6-10.8-50.7-25.7c-2.1,3.6-3.3,7.9-3.3,12.4
			c0,8.5,4.3,16.1,10.9,20.5c-4-0.1-7.8-1.2-11.1-3.1v0.3c0,11.9,8.5,21.9,19.7,24.1c-2.1,0.6-4.2,0.9-6.5,0.9
			c-1.6,0-3.1-0.2-4.6-0.5c3.1,9.8,12.2,16.9,23,17.1c-8.4,6.6-19,10.5-30.6,10.5c-2,0-3.9-0.1-5.9-0.3c10.9,7,23.8,11.1,37.7,11.1
			c45.3,0,70-37.5,70-70l-0.1-3.2C129.5,45.7,133.7,41.4,137,36.4z"/>
	</g>
</g>
</svg>
